<?xml version="1.0"?>
<svg xmlns="http://www.w3.org/2000/svg" xmlns:xlink="http://www.w3.org/1999/xlink" version="1.1" id="Capa_1" x="0px" y="0px" viewBox="0 0 512.486 512.486" style="enable-background:new 0 0 512.486 512.486;" xml:space="preserve" width="512px" height="512px"><g><g>
	<g>
		<g>
			<path d="M476.147,142.832l-13.664-11.2C459.107,128.864,379.219,64,312.339,64c-40.128,0-64.272,11.072-78.8,25.472     C211.374,35.41,158.768,0.075,100.339,0v32c55.928,0.101,103.224,41.41,110.848,96.816c-34.216,2.98-66.99,15.159-94.848,35.248     l18.688,25.968c22.743-16.377,49.418-26.436,77.312-29.152V192h-16v32h64v-32h-16v-31.184     c87.923,8.837,152.035,87.275,143.198,175.198s-87.275,152.035-175.198,143.198c-81.763-8.218-144.007-77.037-144-159.212     c0-2.096,0-4.176,0.128-6.256l-32-1.216c-0.128,2.48-0.128,4.976-0.128,7.472c-0.268,106.038,85.475,192.217,191.513,192.485     c106.038,0.268,192.217-85.475,192.485-191.513c0.106-42.027-13.58-82.929-38.959-116.428     c30.881-9.785,59.053-26.643,82.272-49.232L476.147,142.832z M356.339,176v1.296c-30.574-27.596-69.248-44.573-110.256-48.4     C250.179,114.112,264.179,96,312.339,96c40.16,0,89.936,31.392,114.576,48.912C407.157,162.302,382.507,173.161,356.339,176z" data-original="#000000" class="active-path" data-old_color="#000000" fill="#FFFFFF"/>
			<path d="M113.027,209.056l-23.088-22.144c-8.055,8.395-15.338,17.498-21.76,27.2l26.672,17.6     C100.226,223.636,106.309,216.054,113.027,209.056z" data-original="#000000" class="active-path" data-old_color="#000000" fill="#FFFFFF"/>
			<path d="M81.139,257.328L51.635,244.8c-4.567,10.718-8.144,21.831-10.688,33.2l31.232,6.976     C74.326,275.509,77.325,266.255,81.139,257.328z" data-original="#000000" class="active-path" data-old_color="#000000" fill="#FFFFFF"/>
		</g>
	</g>
</g></g> </svg>
